<svg fill="#fff" stroke="#fff" viewBox="0 0 70 36" xmlns="http://www.w3.org/2000/svg"><path d="m67.1 26.4-.4-4.2c0-.2 0-.5-.1-.7-.1-.8-.2-1.6-.5-2.4-.1-.4-.3-.7-.5-.9-.7-1.1-1.8-1.7-2.7-2.1-2.3-1.2-4.6-2.1-7-2.9-.9-.3-1.8-.6-2.8-.8-9.2-6.4-18-9.4-27.7-9.4-5.7 0-11.9 1-19.7 3.1-.2 0-.3.1-.4.3-.3.5-.2.9-.1 1.2.2.5.6.7 1 .9-.3 1.5-.6 3.5-.9 5.6-.3 2.3-.6 4.6-.9 6-.1.7-.3 1.4-.4 2.1-.1.6-.2 1.5-.2 2 0 1.2.1 2.7.6 3.5.9 1.5 2.7 1.6 3.6 1.7.3 0 1.1.1 1.7.1.7 2.5 2.9 4.3 5.4 4.5h.3c2.5 0 4.6-1.5 5.5-3.8 4.5.1 6.9.1 7.2.1h4.9c5.7 0 10.3-.1 10.6-.2h1.6c.9 2.3 3.1 3.8 5.5 3.8 2.6 0 4.8-1.7 5.6-4.1h.8 1.7c.5 0 1 0 1.5-.1 1.7-.1 3.3-.4 4.9-.8.6-.2 1.3-.4 1.7-1.1.3-.4.3-1 .2-1.4zm-2.4-6.4c.2.7.3 1.4.4 2.3v.1c-.6-.3-1.3-.7-1.7-1.2-.2-.2-.2-.4-.2-.4v-.1c0-.3.4-.6.9-.6h.6zm-45.1 9.2c-.6 2-2.4 3.4-4.5 3.3-2-.1-3.7-1.6-4.1-3.7 0-.1 0-.2 0-.3 0-.3 0-.5 0-.8.1-2.5 2.2-4.4 4.6-4.3s4.3 2.3 4.2 4.8c0 .2-.1.6-.2 1zm35.4-.2c-.5 2-2.2 3.5-4.3 3.5-1.9 0-3.7-1.4-4.2-3.3-.1-.5-.2-.9-.2-1.2 0-2.5 2-4.5 4.4-4.5s4.4 2 4.4 4.5c0 .2 0 .6-.1 1zm10.6-1.8c-.1.2-.6.3-.7.3-1.5.4-3.1.6-4.7.7-.5 0-1 0-1.4.1-.1 0-1.7 0-1.7 0h-.5c0-.1 0-.3 0-.4 0-3.4-2.7-6.1-6-6.1s-6 2.7-6 6.1v.7h-1.2c-.3 0-4.9.2-10.6.2-1.6 0-3.2 0-4.8 0-.3 0-2.6-.1-6.9-.1 0-.1 0-.3 0-.4.2-3.3-2.4-6.2-5.7-6.4s-6.1 2.4-6.3 5.8v.3c-.5 0-1.1-.1-1.3-.1-1.1-.1-2-.3-2.4-1-.2-.3-.4-1.2-.3-2.7 0-.7.1-1.3.2-1.7.2-.7.3-1.4.4-2.1.3-1.4.6-3.7.9-6.1.6-2.3.9-4.7 1.2-6.2.1-.4-.1-.8-.5-.9 7.2-1.9 13-2.8 18.2-2.8 9.4 0 17.9 2.9 26.9 9.2.1.1.2.1.3.1 1 .2 1.9.5 2.8.8 2.3.7 4.6 1.7 6.8 2.8.6.3 1.2.6 1.7 1.1-1.3.1-2.3 1-2.3 2.1 0 .4 0 .9.5 1.6.7.9 2.1 1.7 3.2 2l.3 2.4c-.1.3-.1.6-.1.7z"/><path d="m47.3 15.2h-34.1c-.5 0-.9-.2-1.2-.5s-.5-.8-.5-1.3c.1-1.4.3-3.4.4-4.4.1-.7.7-1.3 1.4-1.4s7.6-1.4 14.5-1.3c9.2.1 15.8 4.3 20 7.4.3.2.4.5.3.9-.2.4-.5.6-.8.6zm-20.4-7.3c-6.5 0-12.7 1.1-13.3 1.2-.1 0-.1.1-.1.1-.1.8-.3 2.7-.4 4.2v.1h.1 31.7c-4-2.7-9.7-5.6-17.1-5.7-.3.1-.6.1-.9.1z"/></svg>